<svg width="1966" height="212" viewBox="0 0 1966 212" fill="none" xmlns="http://www.w3.org/2000/svg">
<path d="M40.896 5.39999H108.864L68.544 207H0.576L40.896 5.39999ZM340.304 5.39999L299.984 207H244.112L186.224 113.112L167.504 207H101.264L141.584 5.39999H197.456L255.344 99.288L274.064 5.39999H340.304ZM588.476 5.39999L462.908 207H396.092L351.164 5.39999H420.86L445.916 122.904L518.78 5.39999H588.476ZM651.688 56.664L647.08 80.28H732.328L722.536 129.24H637L631.816 155.736H732.904L722.536 207H554.92L595.24 5.39999H759.112L748.744 56.664H651.688ZM987.741 5.39999L947.421 207H891.549L833.661 113.112L814.941 207H748.701L789.021 5.39999H844.893L902.781 99.288L921.501 5.39999H987.741ZM1053.61 58.104H994.57L1005.23 5.39999H1191.27L1180.62 58.104H1121.58L1091.91 207H1023.95L1053.61 58.104ZM1279.27 211.608C1258.72 211.608 1240.67 207.864 1225.12 200.376C1209.76 192.696 1197.86 182.04 1189.41 168.408C1181.15 154.776 1177.03 139.128 1177.03 121.464C1177.03 98.04 1182.4 77.208 1193.15 58.968C1204.1 40.536 1219.17 26.232 1238.37 16.056C1257.76 5.87999 1279.65 0.791994 1304.03 0.791994C1324.58 0.791994 1342.53 4.63199 1357.89 12.312C1373.44 19.8 1385.35 30.36 1393.6 43.992C1402.05 57.624 1406.27 73.272 1406.27 90.936C1406.27 114.36 1400.8 135.288 1389.86 153.72C1379.11 171.96 1364.03 186.168 1344.64 196.344C1325.44 206.52 1303.65 211.608 1279.27 211.608ZM1285.03 156.6C1295.78 156.6 1305.09 153.816 1312.96 148.248C1321.03 142.68 1327.17 135.192 1331.39 125.784C1335.62 116.376 1337.73 106.104 1337.73 94.968C1337.73 83.064 1334.18 73.56 1327.07 66.456C1320.16 59.352 1310.56 55.8 1298.27 55.8C1287.52 55.8 1278.11 58.584 1270.05 64.152C1262.18 69.72 1256.13 77.208 1251.91 86.616C1247.68 96.024 1245.57 106.296 1245.57 117.432C1245.57 129.336 1249.03 138.84 1255.94 145.944C1263.04 153.048 1272.74 156.6 1285.03 156.6ZM1624.48 71.64C1624.48 89.496 1619.68 105.144 1610.08 118.584C1600.67 131.832 1587.33 141.72 1570.05 148.248L1603.74 207H1533.18L1504.67 156.312H1487.97L1477.89 207H1409.92L1450.24 5.39999H1540.67C1567.17 5.39999 1587.71 11.256 1602.3 22.968C1617.09 34.488 1624.48 50.712 1624.48 71.64ZM1555.65 78.264C1555.65 64.632 1547.2 57.816 1530.3 57.816H1507.55L1498.05 105.048H1525.98C1535.39 105.048 1542.69 102.744 1547.87 98.136C1553.06 93.336 1555.65 86.712 1555.65 78.264ZM1664.83 5.39999H1732.8L1692.48 207H1624.51L1664.83 5.39999ZM1838.67 211.608C1818.13 211.608 1800.08 207.864 1784.53 200.376C1769.17 192.696 1757.27 182.04 1748.82 168.408C1740.56 154.776 1736.43 139.128 1736.43 121.464C1736.43 98.04 1741.81 77.208 1752.56 58.968C1763.51 40.536 1778.58 26.232 1797.78 16.056C1817.17 5.87999 1839.06 0.791994 1863.44 0.791994C1883.99 0.791994 1901.94 4.63199 1917.3 12.312C1932.85 19.8 1944.75 30.36 1953.01 43.992C1961.46 57.624 1965.68 73.272 1965.68 90.936C1965.68 114.36 1960.21 135.288 1949.27 153.72C1938.51 171.96 1923.44 186.168 1904.05 196.344C1884.85 206.52 1863.06 211.608 1838.67 211.608ZM1844.43 156.6C1855.19 156.6 1864.5 153.816 1872.37 148.248C1880.43 142.68 1886.58 135.192 1890.8 125.784C1895.03 116.376 1897.14 106.104 1897.14 94.968C1897.14 83.064 1893.59 73.56 1886.48 66.456C1879.57 59.352 1869.97 55.8 1857.68 55.8C1846.93 55.8 1837.52 58.584 1829.46 64.152C1821.59 69.72 1815.54 77.208 1811.31 86.616C1807.09 96.024 1804.98 106.296 1804.98 117.432C1804.98 129.336 1808.43 138.84 1815.35 145.944C1822.45 153.048 1832.15 156.6 1844.43 156.6Z" fill="black"/>
</svg>
